# xmcd CD database file
# Copyright (C) 1995-1998 Ti Kan
#
# Track frame offsets:
#	150
#	21750
#	37460
#	52092
#	67397
#	85547
#	104362
#	120972
#	136970
#	154247
#	171995
#	187397
#
# Disc length: 2689 seconds
#
# Revision: 1
# Processed by: cddbd v1.4b41PL1 Copyright (c) Steve Scherf et al.
# Submitted via: CDex 1.30
#
DISCID=b20a7f0c
DTITLE=Stephanie Beaumont - Way Over My Heart
DYEAR=1998
DGENRE=Country
TTITLE0=Already In Way Over My Heart
TTITLE1=Who Says?
TTITLE2=You And Me And Love
TTITLE3=Whoever Said That
TTITLE4=I'll Be Loving You
TTITLE5=One From The Heart
TTITLE6=It Doesn't Hurt That Much
TTITLE7=It's Not A Matter Of Love
TTITLE8=Let's Do Something About It
TTITLE9=I've Gotta Know
TTITLE10=My Greatest Love
TTITLE11=Moondust
EXTD=YEAR: 1998  ID3G:   2
EXTT0=
EXTT1=
EXTT2=
EXTT3=
EXTT4=
EXTT5=
EXTT6=
EXTT7=
EXTT8=
EXTT9=
EXTT10=
EXTT11=
PLAYORDER=
